<svg width="21" height="24" viewBox="0 0 21 24" fill="none" xmlns="http://www.w3.org/2000/svg">
<g clip-path="url(#clip0_33_2233)">
<path d="M16.8535 7.61687C16.8535 5.46844 15.6172 3.58172 13.7695 2.53875L14.791 0.696951C14.8219 0.643308 14.8418 0.584009 14.8494 0.522564C14.8569 0.461119 14.8521 0.398777 14.8352 0.339227C14.8182 0.279677 14.7895 0.22413 14.7508 0.175872C14.712 0.127615 14.6639 0.0876286 14.6094 0.0582793C14.5021 -0.00118468 14.3757 -0.0156611 14.2578 0.0180281C14.1398 0.0517173 14.0401 0.130819 13.9805 0.237967L12.9336 2.12859C11.289 1.48278 9.46101 1.48278 7.81641 2.12859L6.76758 0.237967C6.73824 0.184723 6.69865 0.13781 6.6511 0.0999293C6.60355 0.0620485 6.54898 0.0339483 6.49052 0.0172468C6.43207 0.000545291 6.37089 -0.00442757 6.3105 0.00261459C6.25012 0.00965674 6.19172 0.0285748 6.13868 0.0582793C6.08543 0.0876232 6.03852 0.12721 6.00064 0.17476C5.96276 0.22231 5.93466 0.276884 5.91796 0.335339C5.90126 0.393795 5.89628 0.454976 5.90333 0.515361C5.91037 0.575747 5.92929 0.634142 5.95899 0.687186L6.98048 2.53875C5.13087 3.58172 3.90626 5.46844 3.90626 7.61687H16.8535ZM19.041 7.61687C19.2654 7.61687 19.4875 7.66109 19.6947 7.747C19.902 7.83291 20.0902 7.95882 20.2488 8.11754C20.4073 8.27626 20.533 8.46467 20.6187 8.67201C20.7043 8.87934 20.7483 9.10152 20.7481 9.32586V15.3805C20.7483 15.6049 20.7043 15.8271 20.6187 16.0344C20.533 16.2417 20.4073 16.4301 20.2488 16.5889C20.0902 16.7476 19.902 16.8735 19.6947 16.9594C19.4875 17.0453 19.2654 17.0895 19.041 17.0895C18.5878 17.0895 18.1531 16.9095 17.8326 16.589C17.5121 16.2685 17.332 15.8338 17.332 15.3805V9.32586C17.332 8.87261 17.5121 8.43792 17.8326 8.11742C18.1531 7.79693 18.5878 7.61687 19.041 7.61687ZM1.70899 7.61687C2.16224 7.61687 2.59693 7.79693 2.91742 8.11742C3.23792 8.43792 3.41797 8.87261 3.41797 9.32586V15.3805C3.41797 15.8338 3.23792 16.2685 2.91742 16.589C2.59693 16.9095 2.16224 17.0895 1.70899 17.0895C1.25641 17.0895 0.822318 16.91 0.501933 16.5904C0.181549 16.2707 0.00103892 15.837 4.46469e-06 15.3845V9.32976C-0.000509264 9.10501 0.0433158 8.88236 0.12897 8.67457C0.214625 8.46677 0.340426 8.27791 0.499171 8.1188C0.657916 7.9597 0.846487 7.83346 1.05409 7.74734C1.26168 7.66121 1.48423 7.61687 1.70899 7.61687ZM9.66212 19.0876V22.2907C9.66212 22.744 9.48206 23.1786 9.16157 23.4991C8.84107 23.8196 8.40638 23.9997 7.95313 23.9997C7.50074 23.9987 7.06725 23.8181 6.74791 23.4976C6.42857 23.1772 6.24949 22.7431 6.25001 22.2907V19.0876H5.46876C5.05435 19.0876 4.65693 18.923 4.3639 18.6299C4.07088 18.3369 3.90626 17.9395 3.90626 17.5251V8.13055H16.8535V17.5212C16.8535 17.9356 16.6889 18.333 16.3959 18.626C16.1029 18.9191 15.7054 19.0837 15.291 19.0837H14.5098V22.2868C14.5098 22.74 14.3297 23.1747 14.0092 23.4952C13.6887 23.8157 13.254 23.9958 12.8008 23.9958C12.3475 23.9958 11.9129 23.8157 11.5924 23.4952C11.2719 23.1747 11.0918 22.74 11.0918 22.2868V19.0876H9.66212Z" fill="white"/>
<path d="M7.66797 4.70507C7.66797 4.64859 7.65119 4.59338 7.61977 4.54645C7.58835 4.49951 7.5437 4.46296 7.49148 4.44144C7.43926 4.41992 7.38183 4.41438 7.32646 4.42555C7.27109 4.43671 7.22029 4.46406 7.18049 4.50414C7.14068 4.54421 7.11368 4.5952 7.1029 4.65065C7.09212 4.70609 7.09804 4.76349 7.11993 4.81556C7.14181 4.86763 7.17866 4.91203 7.22581 4.94312C7.27296 4.97422 7.32829 4.99061 7.38477 4.99023C7.42212 4.99023 7.45911 4.98284 7.4936 4.96849C7.52808 4.95413 7.55939 4.9331 7.58571 4.90659C7.61204 4.88008 7.63286 4.84863 7.64697 4.81405C7.66109 4.77946 7.66823 4.74243 7.66797 4.70507Z" fill="white"/>
<path d="M7.42201 4.70518C7.42424 4.69886 7.42424 4.69197 7.42201 4.68565C7.41603 4.68135 7.40886 4.67905 7.4015 4.67905C7.39414 4.67905 7.38697 4.68135 7.38099 4.68565C7.37915 4.69203 7.37915 4.6988 7.38099 4.70518C7.3807 4.7091 7.38126 4.71304 7.38263 4.71673C7.384 4.72041 7.38615 4.72376 7.38893 4.72654C7.39171 4.72932 7.39506 4.73147 7.39874 4.73284C7.40243 4.73421 7.40637 4.73477 7.41029 4.73448C7.41667 4.73632 7.42344 4.73632 7.42982 4.73448C7.43254 4.72757 7.43254 4.71989 7.42982 4.71299L7.42201 4.70518ZM7.77552 4.31455C7.82578 4.36463 7.86565 4.42414 7.89286 4.48967C7.92007 4.55519 7.93407 4.62544 7.93407 4.69639C7.93407 4.76734 7.92007 4.83759 7.89286 4.90311C7.86565 4.96864 7.82578 5.02814 7.77552 5.07823C7.67379 5.17937 7.53617 5.23614 7.39271 5.23614C7.24926 5.23614 7.11163 5.17937 7.0099 5.07823C6.95672 5.02875 6.91405 4.96908 6.88444 4.90276C6.85482 4.83645 6.83885 4.76484 6.8375 4.69223C6.83614 4.61961 6.84942 4.54746 6.87655 4.48009C6.90367 4.41271 6.94408 4.35149 6.99537 4.30006C7.04667 4.24864 7.10779 4.20807 7.17509 4.18077C7.2424 4.15348 7.31451 4.14001 7.38713 4.14118C7.45975 4.14235 7.5314 4.15813 7.59779 4.18758C7.66418 4.21703 7.72396 4.25955 7.77357 4.3126L7.77552 4.31455Z" fill="white"/>
<path d="M13.6504 4.70508C13.6504 4.64868 13.6337 4.59355 13.6023 4.54665C13.571 4.49976 13.5265 4.46321 13.4744 4.44163C13.4223 4.42005 13.3649 4.4144 13.3096 4.4254C13.2543 4.4364 13.2035 4.46356 13.1636 4.50344C13.1237 4.54332 13.0966 4.59413 13.0856 4.64945C13.0746 4.70476 13.0802 4.7621 13.1018 4.8142C13.1234 4.86631 13.1599 4.91084 13.2068 4.94218C13.2537 4.97351 13.3088 4.99023 13.3652 4.99023C13.4409 4.99023 13.5134 4.96019 13.5669 4.90671C13.6203 4.85324 13.6504 4.78071 13.6504 4.70508Z" fill="white"/>
<path d="M13.3927 4.70518C13.3949 4.69886 13.3949 4.69197 13.3927 4.68565C13.3867 4.68135 13.3796 4.67905 13.3722 4.67905C13.3648 4.67905 13.3577 4.68135 13.3517 4.68565C13.3499 4.69203 13.3499 4.6988 13.3517 4.70518C13.3514 4.7091 13.352 4.71304 13.3533 4.71673C13.3547 4.72041 13.3568 4.72376 13.3596 4.72654C13.3624 4.72932 13.3658 4.73147 13.3694 4.73284C13.3731 4.73421 13.3771 4.73477 13.381 4.73448C13.3874 4.73632 13.3941 4.73632 13.4005 4.73448C13.4032 4.72757 13.4032 4.71989 13.4005 4.71299L13.3927 4.70518ZM13.7462 4.31455C13.8417 4.41722 13.8937 4.55296 13.8911 4.69317C13.8884 4.83337 13.8315 4.96709 13.7322 5.06612C13.6329 5.16515 13.4991 5.22176 13.3588 5.22402C13.2186 5.22628 13.083 5.17401 12.9806 5.07823C12.9274 5.02875 12.8848 4.96908 12.8551 4.90276C12.8255 4.83645 12.8096 4.76484 12.8082 4.69223C12.8068 4.61961 12.8201 4.54746 12.8472 4.48009C12.8744 4.41271 12.9148 4.35149 12.9661 4.30006C13.0174 4.24864 13.0785 4.20807 13.1458 4.18077C13.2131 4.15348 13.2852 4.14001 13.3578 4.14118C13.4305 4.14235 13.5021 4.15813 13.5685 4.18758C13.6349 4.21703 13.6947 4.25955 13.7443 4.3126L13.7462 4.31455Z" fill="white"/>
</g>
<defs>
<clipPath id="clip0_33_2233">
<rect width="20.7481" height="24" fill="white"/>
</clipPath>
</defs>
</svg>
