<svg width="24" height="24" viewBox="0 0 24 24" fill="none" xmlns="http://www.w3.org/2000/svg">
<g clip-path="url(#clip0_33_2231)">
<path fill-rule="evenodd" clip-rule="evenodd" d="M18.5542 12.7507C18.5241 9.71224 21.0323 8.25416 21.1444 8.18197C19.7346 6.11974 17.5381 5.83627 16.7555 5.8044C14.8864 5.6157 13.1089 6.90547 12.1593 6.90547C11.2123 6.90547 9.74893 5.83271 8.19917 5.8611C6.16217 5.89121 4.28417 7.04587 3.23406 8.87029C1.11774 12.5421 2.69274 17.9842 4.75547 20.9615C5.76309 22.4196 6.96474 24.0575 8.54286 23.999C10.0621 23.9393 10.637 23.0149 12.4747 23.0149C14.3119 23.0149 14.8279 23.9991 16.4362 23.9676C18.0714 23.9375 19.1074 22.4812 20.1083 21.0182C21.2666 19.3262 21.7414 17.6901 21.7702 17.6059C21.7339 17.5896 18.5816 16.3822 18.5497 12.752L18.5542 12.7507H18.5542ZM15.5335 3.8316C16.3706 2.81599 16.9362 1.40617 16.7816 -0.000976562C15.5756 0.0481859 14.113 0.802911 13.2472 1.81721C12.4698 2.71766 11.7908 4.15271 11.9724 5.53106C13.3193 5.63606 14.6946 4.84676 15.5321 3.83336L15.5335 3.8316Z" fill="white"/>
</g>
<defs>
<clipPath id="clip0_33_2231">
<rect width="24" height="24" fill="white"/>
</clipPath>
</defs>
</svg>
