<svg width="24" height="24" viewBox="0 0 24 24" fill="none" xmlns="http://www.w3.org/2000/svg">
<g clip-path="url(#clip0_33_2229)">
<path fill-rule="evenodd" clip-rule="evenodd" d="M13.3049 17.2706C11.3848 18.1649 9.59805 18.1538 8.39775 18.0688C6.96713 17.9651 5.81644 17.574 5.31105 17.2321C4.99924 17.0208 4.57624 17.1028 4.3641 17.4154C4.15193 17.7277 4.23473 18.1498 4.54748 18.3619C5.36021 18.9125 6.79838 19.3218 8.30209 19.4303C8.5572 19.4484 8.83624 19.4604 9.13785 19.4604C10.4458 19.4604 12.1063 19.3355 13.8824 18.5095C14.2243 18.3509 14.3718 17.9452 14.2124 17.6037C14.0534 17.2618 13.6485 17.1143 13.3066 17.2737L13.3049 17.2706ZM20.8814 16.2616C20.9474 10.3394 21.5551 -0.852306 10.2177 0.0521562C-0.977064 0.953506 1.99136 12.7782 1.82528 16.7382C1.67689 18.8337 0.982388 21.3946 0 23.9999L3.02513 24.0003C3.33563 22.8966 3.5655 21.8039 3.66206 20.7622C3.85163 20.894 4.04749 21.0165 4.24894 21.1293C4.5882 21.3291 4.87875 21.5944 5.18794 21.8748C5.90809 22.5321 6.72529 23.2757 8.32155 23.3688C8.42786 23.3749 8.53549 23.378 8.64225 23.378C10.258 23.378 11.3618 22.6716 12.2485 22.1029C12.6732 21.8314 13.0404 21.5957 13.3872 21.4832C14.3696 21.1758 15.2276 20.6793 15.8698 20.0477C15.9676 19.9509 16.0612 19.8498 16.1502 19.7448C16.5076 21.0545 16.9962 22.5289 17.5392 23.999L24 23.9985C22.4489 21.6033 20.8487 19.2558 20.8814 16.2598V16.2616ZM2.90824 13.0395V13.0381C2.79705 11.1057 3.72143 9.47973 4.97355 9.40619C6.22613 9.33221 7.33035 10.8417 7.44105 12.7737V12.7755C7.44728 12.8791 7.44994 12.9823 7.44994 13.0842C7.05353 13.1834 6.69563 13.3287 6.37451 13.497C6.37275 13.4824 6.37275 13.4686 6.37189 13.4536C6.26513 12.3569 5.6787 11.5278 5.06216 11.6026C4.44518 11.677 4.03324 12.6284 4.1409 13.7251C4.1874 14.2035 4.32514 14.6308 4.5174 14.9538C4.4691 14.991 4.33403 15.0902 4.17986 15.2027C4.06294 15.2882 3.92209 15.3913 3.75068 15.5176C3.28429 14.9055 2.96494 14.0285 2.90779 13.035L2.90824 13.0395ZM15.5925 17.8172C15.5478 18.839 14.2124 19.8006 12.9776 20.1859L12.9704 20.1886C12.4571 20.3556 11.9996 20.6479 11.5155 20.958C10.701 21.4784 9.85939 22.017 8.64446 22.017C8.56519 22.017 8.48235 22.0143 8.40308 22.0099C7.29004 21.9452 6.76781 21.4695 6.10965 20.8685C5.7615 20.5522 5.40188 20.2236 4.93856 19.9516L4.9275 19.9455C3.92696 19.3803 3.30641 18.6778 3.26524 18.0661C3.24619 17.7618 3.38126 17.4992 3.66739 17.2831C4.29146 16.8149 4.71004 16.5093 4.98596 16.3069C5.29335 16.0819 5.38635 16.0145 5.45546 15.9486C5.50929 15.8979 5.5623 15.8463 5.61446 15.7939C6.18761 15.2372 7.14563 14.3044 8.61746 14.3044C9.51746 14.3044 10.5131 14.6508 11.574 15.3333C12.0735 15.6589 12.5085 15.809 13.0586 15.9995C13.4369 16.1301 13.8674 16.2785 14.4414 16.5248L14.4507 16.5292C14.9862 16.7498 15.6209 17.1515 15.5908 17.8163L15.5925 17.8172ZM15.2971 15.4166C15.1919 15.3628 15.0843 15.3138 14.9747 15.27C14.4569 15.0477 14.0414 14.898 13.6964 14.7779C13.8873 14.4058 14.0056 13.9412 14.0162 13.4372C14.0436 12.2103 13.424 11.2124 12.6334 11.2111C11.8432 11.2102 11.1815 12.2028 11.1545 13.4296C11.1527 13.4696 11.1527 13.5097 11.1545 13.5497C10.6686 13.3264 10.1903 13.1626 9.72075 13.0638C9.71899 13.0173 9.71588 12.9726 9.71456 12.9261V12.9247C9.66938 10.688 11.0407 8.83706 12.7787 8.79056C14.5171 8.74406 15.9615 10.5184 16.008 12.7534V12.7551C16.0288 13.7659 15.7573 14.6973 15.2954 15.4193L15.2971 15.4167V15.4166Z" fill="white"/>
</g>
<defs>
<clipPath id="clip0_33_2229">
<rect width="24" height="24" fill="white"/>
</clipPath>
</defs>
</svg>
